<svg id="Gradient" height="512" viewBox="0 0 512 512" width="512" xmlns="http://www.w3.org/2000/svg" xmlns:xlink="http://www.w3.org/1999/xlink"><linearGradient id="g2" gradientUnits="userSpaceOnUse" x1="256" x2="256" y1="496" y2="16"><stop offset="0" stop-color="#12c2e9"/><stop offset=".5" stop-color="#c471ed"/><stop offset=".982" stop-color="#f64f59"/></linearGradient><path d="m488 64h-24v-8a8 8 0 0 0 -8-8h-56v-8a24 24 0 0 0 -48 0v8h-16v-8a24 24 0 0 0 -48 0v8h-96v-8a24 24 0 0 0 -48 0v8h-16v-8a24 24 0 0 0 -48 0v8h-56a8 8 0 0 0 -8 8v400a8 8 0 0 0 8 8h8v24a8 8 0 0 0 8 8h448a8 8 0 0 0 8-8v-416a8 8 0 0 0 -8-8zm-456 384v-288h416v288zm336-408a8 8 0 0 1 16 0v8h-16zm-64 0a8 8 0 0 1 16 0v8h-16zm-144 0a8 8 0 0 1 16 0v8h-16zm-64 0a8 8 0 0 1 16 0v8h-16zm-16 24v8a24.028 24.028 0 0 0 24 24 8 8 0 0 0 0-16 8.009 8.009 0 0 1 -8-8v-8h48v8a24.028 24.028 0 0 0 24 24 8 8 0 0 0 0-16 8.009 8.009 0 0 1 -8-8v-8h128v8a24.028 24.028 0 0 0 24 24 8 8 0 0 0 0-16 8.009 8.009 0 0 1 -8-8v-8h48v8a24.028 24.028 0 0 0 24 24 8 8 0 0 0 0-16 8.009 8.009 0 0 1 -8-8v-8h80v80h-416v-80zm400 416h-432v-16h408a8 8 0 0 0 8-8v-376h16zm-352-88a48.054 48.054 0 0 1 -48-48 8 8 0 0 1 16 0 32 32 0 1 0 32-32 8 8 0 0 1 0-16 32 32 0 1 0 -32-32 8 8 0 0 1 -16 0 48 48 0 1 1 74.507 40 47.989 47.989 0 0 1 -26.507 88zm272-48a48 48 0 0 1 -96 0 8 8 0 0 1 16 0 32 32 0 1 0 32-32h-32a8 8 0 0 1 -8-8v-80a8 8 0 0 1 8-8h64a8 8 0 0 1 0 16h-56v64h24a48.054 48.054 0 0 1 48 48zm-160-112a32.036 32.036 0 0 1 32 32 8 8 0 0 0 16 0 48 48 0 0 0 -96 0v80a48.069 48.069 0 1 0 16-35.739v-44.261a32.036 32.036 0 0 1 32-32zm0 80a32 32 0 1 1 -32 32 32.036 32.036 0 0 1 32-32z" fill="url(#g2)"/></svg>