<?xml version="1.0" encoding="iso-8859-1"?>
<!-- Generator: Adobe Illustrator 19.0.0, SVG Export Plug-In . SVG Version: 6.00 Build 0)  -->
<svg version="1.1" id="Capa_1" xmlns="http://www.w3.org/2000/svg" xmlns:xlink="http://www.w3.org/1999/xlink" x="0px" y="0px"
	 viewBox="0 0 480.007 480.007" style="enable-background:new 0 0 480.007 480.007;" xml:space="preserve">
<g>
	<g>
		<path d="M168.007,218.404c-70.692,0-128,57.308-128,128s57.308,128,128,128s128-57.308,128-128
			C295.924,275.746,238.665,218.487,168.007,218.404z M168.007,234.404c46.369,0.077,87.904,28.698,104.488,72H63.519
			C80.103,263.101,121.638,234.481,168.007,234.404z M136.007,453.684c-33.263-10.017-60.023-34.855-72.488-67.28h72.488V453.684z
			 M136.215,370.404H58.663c-3.541-15.804-3.541-32.196,0-48h77.552C125.274,336.533,125.274,356.274,136.215,370.404z
			 M184.007,457.124c-10.598,1.707-21.402,1.707-32,0v-70.72h32V457.124z M168.007,370.404c-13.255,0-24-10.745-24-24
			s10.745-24,24-24s24,10.745,24,24S181.262,370.404,168.007,370.404z M200.007,453.684v-67.28h72.488
			C260.03,418.829,233.27,443.666,200.007,453.684z M199.799,370.404c10.941-14.13,10.941-33.87,0-48h77.552
			c3.541,15.804,3.541,32.196,0,48H199.799z"/>
	</g>
</g>
<g>
	<g>
		<rect x="122.755" y="114.407" transform="matrix(0.7071 -0.7071 0.7071 0.7071 -37.3456 154.6542)" width="90.512" height="16"/>
	</g>
</g>
<g>
	<g>
		<rect x="296.01" y="77.144" transform="matrix(0.7071 -0.7071 0.7071 0.7071 2.4925 250.8179)" width="16" height="90.512"/>
	</g>
</g>
<g>
	<g>
		<rect x="224.007" y="122.404" width="16" height="16"/>
	</g>
</g>
<g>
	<g>
		<rect x="224.007" y="154.404" width="16" height="16"/>
	</g>
</g>
<g>
	<g>
		<path d="M302.407,37.604l-24-32l-12.8,9.6l14.4,19.2h-24.8c-17.231,0-31.2,13.969-31.2,31.2v40.8h16v-40.8
			c0-8.395,6.805-15.2,15.2-15.2h24.8l-14.4,19.2l12.8,9.6l24-32C304.541,44.359,304.541,40.448,302.407,37.604z"/>
	</g>
</g>
<g>
	<g>
		<path d="M480.007,242.404H299.695c-31.77-40.385-80.304-63.973-131.688-64c-51.384,0.027-99.918,23.615-131.688,64H0.007v16
			h25.168c-43.14,69.506-29.726,160.011,31.72,214.016l10.584-12C4.514,404.9-1.522,308.848,53.998,245.882
			s151.572-69.001,214.537-13.481c62.966,55.52,69.001,151.572,13.481,214.537c-4.207,4.771-8.71,9.274-13.481,13.481l10.584,12
			c51.567-45.256,70.239-117.43,47.088-182.016h27.2c12.375-0.035,24.249,4.883,32.976,13.656
			c11.712,11.777,27.647,18.382,44.256,18.344h49.368v-16h-49.368c-12.375,0.035-24.249-4.883-32.976-13.656
			c-11.72-11.785-27.668-18.39-44.288-18.344h-33.368v0.912c-2.729-5.809-5.79-11.455-9.168-16.912h169.168V242.404z"/>
	</g>
</g>
<g>
	<g>
		<path d="M56.007,82.404c-30.928,0-56,25.072-56,56c0.035,30.913,25.087,55.965,56,56c30.928,0,56-25.072,56-56
			C112.007,107.476,86.935,82.404,56.007,82.404z M32.151,170.324c6.896-5.131,15.26-7.907,23.856-7.92
			c8.575,0.022,16.911,2.83,23.752,8C65.683,181.101,46.192,181.068,32.151,170.324z M90.487,158.332
			c-7.676-6.034-16.812-9.931-26.48-11.296v-32.632h-16v32.648c-9.654,1.402-18.776,5.298-26.464,11.304
			c-3.583-6.042-5.494-12.928-5.536-19.952c0.026-22.08,17.92-39.974,40-40c22.08,0.026,39.974,17.92,40,40
			C95.965,145.418,94.06,152.295,90.487,158.332z"/>
	</g>
</g>
<g>
	<g>
		<path d="M392.007,178.404h-80c-4.418,0-8,3.582-8,8v32c0,4.418,3.582,8,8,8h80c4.418,0,8-3.582,8-8v-32
			C400.007,181.985,396.426,178.404,392.007,178.404z M336.007,210.404h-16v-16h16V210.404z M384.007,210.404h-32v-16h32V210.404z"
			/>
	</g>
</g>
<g>
</g>
<g>
</g>
<g>
</g>
<g>
</g>
<g>
</g>
<g>
</g>
<g>
</g>
<g>
</g>
<g>
</g>
<g>
</g>
<g>
</g>
<g>
</g>
<g>
</g>
<g>
</g>
<g>
</g>
</svg>
