<svg id="icons" enable-background="new 0 0 64 64" height="512" viewBox="0 0 64 64" width="512" xmlns="http://www.w3.org/2000/svg"><g><g><path d="m50 23-6-5h-4-15-3.99l-7 8h-4.01v9 3 9l12 8h28 4v-7-18-7z" fill="#fff"/></g><g><path d="m7 38v11c-1.65 0-3-1.35-3-3v-8-3-8-.01c.01-1.66 1.35-2.99 3-2.99v11z" fill="#94c1ff"/></g><g><path d="m1 35h3v3h-3z" fill="#d7e9ff"/></g><g><path d="m7 35h3v3h-3z" fill="#d7e9ff"/></g><g><path d="m46 11v2c0 1.1-.9 2-2 2h-4-15-4c-1.1 0-2-.9-2-2v-2c0-1.1.9-2 2-2h23c1.1 0 2 .9 2 2z" fill="#94c1ff"/></g><g><path d="m25 15h15v3h-15z" fill="#d7e9ff"/></g><g><path d="m63 27v24h-6v-3-18-3z" fill="#fff"/></g><g><path d="m54 30h3v18h-3z" fill="#d7e9ff"/></g><g><path d="m44.12 42.88c.54.54.88 1.29.88 2.12 0 1.66-1.34 3-3 3-.56 0-1.09-.16-1.54-.43l-.16-.09c-.78-.55-1.3-1.45-1.3-2.48 0-1.66 1.35-3 3-3 .83 0 1.58.34 2.12.88z" fill="#94c1ff"/></g><g><path d="m29 32c0-1.66-1.34-3-3-3-1.65 0-3 1.34-3 3s1.35 3 3 3c1.66 0 3-1.34 3-3zm1.52-3.93c.93 1.05 1.48 2.43 1.48 3.93 0 3.31-2.68 6-6 6-1.01 0-1.96-.25-2.8-.69l-.52-.31c-1.61-1.08-2.68-2.91-2.68-5 0-3.31 2.69-6 6-6 1.81 0 3.44.8 4.52 2.07z" fill="#94c1ff"/></g><g><path d="m26 29c1.66 0 3 1.34 3 3s-1.34 3-3 3c-1.65 0-3-1.34-3-3s1.35-3 3-3z" fill="#5c9eff"/></g></g><g><g><path d="m53.998 56.003h-31.994c-.197 0-.391-.059-.555-.168l-12.002-8.008c-.278-.186-.445-.498-.445-.832v-20.992c0-.553.447-1 1-1h3.556l6.701-7.666c.189-.217.465-.342.753-.342h22.986c.234 0 .461.082.641.232l5.721 4.773h3.638c.553 0 1 .447 1 1v32.003c0 .553-.447 1-1 1zm-31.691-2h30.691v-30.003h-3c-.234 0-.461-.082-.641-.232l-5.722-4.772h-22.17l-6.701 7.666c-.189.217-.465.342-.753.342h-3.01v19.456z" fill="#116fff"/></g><g><path d="m26.002 39c-3.859 0-7-3.141-7-7s3.141-7 7-7 7 3.141 7 7-3.141 7-7 7zm0-12c-2.757 0-5 2.243-5 5s2.243 5 5 5 5-2.243 5-5-2.243-5-5-5z" fill="#116fff"/></g><g><path d="m26.002 36c-2.206 0-4-1.794-4-4s1.794-4 4-4 4 1.794 4 4-1.794 4-4 4zm0-6c-1.103 0-2 .897-2 2s.897 2 2 2 2-.897 2-2-.898-2-2-2z" fill="#116fff"/></g><g><path d="m42.002 49c-2.206 0-4-1.794-4-4s1.794-4 4-4 4 1.794 4 4-1.794 4-4 4zm0-6c-1.103 0-2 .897-2 2s.897 2 2 2 2-.897 2-2-.898-2-2-2z" fill="#116fff"/></g><g><path d="m44.236 44c-.271 0-.54-.109-.736-.324l-13.707-14.937c-.374-.406-.347-1.039.061-1.412.405-.374 1.04-.348 1.412.061l13.707 14.937c.374.406.347 1.039-.061 1.412-.191.176-.433.263-.676.263z" fill="#116fff"/></g><g><path d="m40.46 48.574c-.174 0-.35-.045-.51-.141l-17.777-10.574c-.476-.282-.631-.896-.349-1.37.282-.476.896-.633 1.37-.349l17.777 10.574c.476.282.631.896.349 1.37-.186.315-.519.49-.86.49z" fill="#116fff"/></g><g><path d="m4.004 27.997c-.553 0-1-.447-1-1 0-2.206 1.794-4 4-4 .553 0 1 .447 1 1s-.447 1-1 1c-1.103 0-2 .897-2 2 0 .553-.447 1-1 1z" fill="#116fff"/></g><g><path d="m7.004 49.996c-2.206 0-4-1.794-4-4 0-.553.447-1 1-1s1 .447 1 1c0 1.103.897 2 2 2 .553 0 1 .447 1 1s-.447 1-1 1z" fill="#116fff"/></g><g><path d="m4.004 46.996c-.553 0-1-.447-1-1v-19.009c0-.553.447-1 1-1s1 .447 1 1v19.009c0 .553-.447 1-1 1z" fill="#116fff"/></g><g><path d="m7.004 49.996c-.553 0-1-.447-1-1v-25.012c0-.553.447-1 1-1s1 .447 1 1v25.012c0 .553-.447 1-1 1z" fill="#116fff"/></g><g><path d="m10.002 36.002h-2.998c-.553 0-1-.447-1-1s.447-1 1-1h2.998c.553 0 1 .447 1 1s-.447 1-1 1z" fill="#116fff"/></g><g><path d="m10.002 39.002h-2.998c-.553 0-1-.447-1-1s.447-1 1-1h2.998c.553 0 1 .447 1 1s-.447 1-1 1z" fill="#116fff"/></g><g><path d="m4.002 39h-3.002c-.553 0-1-.447-1-1v-2.998c0-.553.447-1 1-1h3.002c.553 0 1 .447 1 1v2.998c0 .553-.447 1-1 1zm-2.002-2h1.002v-.998h-1.002z" fill="#116fff"/></g><g><path d="m44.002 16h-23.004c-1.654 0-3-1.346-3-3v-2.003c0-1.654 1.346-3 3-3h23.004c1.654 0 3 1.346 3 3v2.003c0 1.654-1.346 3-3 3zm-23.004-6.003c-.552 0-1 .448-1 1v2.003c0 .552.448 1 1 1h23.004c.552 0 1-.448 1-1v-2.003c0-.552-.448-1-1-1z" fill="#116fff"/></g><g><path d="m25.002 18.995c-.553 0-1-.447-1-1v-2.995c0-.553.447-1 1-1s1 .447 1 1v2.995c0 .553-.447 1-1 1z" fill="#116fff"/></g><g><path d="m39.998 18.995c-.553 0-1-.447-1-1v-2.995c0-.553.447-1 1-1s1 .447 1 1v2.995c0 .553-.447 1-1 1z" fill="#116fff"/></g><g><path d="m63 52h-6c-.553 0-1-.447-1-1v-24c0-.553.447-1 1-1h6c.553 0 1 .447 1 1v24c0 .553-.447 1-1 1zm-5-2h4v-22h-4z" fill="#116fff"/></g><g><path d="m57 49h-3.002c-.553 0-1-.447-1-1s.447-1 1-1h3.002c.553 0 1 .447 1 1s-.447 1-1 1z" fill="#116fff"/></g><g><path d="m57 31h-3.002c-.553 0-1-.447-1-1s.447-1 1-1h3.002c.553 0 1 .447 1 1s-.447 1-1 1z" fill="#116fff"/></g></g></svg>