<svg height="512" viewBox="0 0 64 64" width="512" xmlns="http://www.w3.org/2000/svg"><path d="m59 25h-24v-6.58a8.049 8.049 0 0 1 -6 0v6.58h-24a2.006 2.006 0 0 0 -2 2v32a2.006 2.006 0 0 0 2 2h54a2.006 2.006 0 0 0 2-2v-32a2.006 2.006 0 0 0 -2-2zm-4 25a5 5 0 0 1 -10 0v-3h-8v3a5 5 0 0 1 -10 0v-3h-8v3a5 5 0 0 1 -10 0v-14a5 5 0 0 1 10 0v3h8v-3a5.01 5.01 0 0 1 2-4v4a3 3 0 0 0 6 0v-4a5.01 5.01 0 0 1 2 4v3h8v-3a5 5 0 0 1 10 0z" fill="#9bc9ff"/><circle cx="32" cy="11" fill="#9bc9ff" r="2"/><g fill="#57a4ff"><path d="m59 24h-23v-4.95a9 9 0 1 0 -8 0v4.95h-23a3 3 0 0 0 -3 3v32a3 3 0 0 0 3 3h54a3 3 0 0 0 3-3v-32a3 3 0 0 0 -3-3zm-22 16h8a1 1 0 0 0 1-1v-3a4 4 0 0 1 8 0v14a4 4 0 0 1 -8 0v-3a1 1 0 0 0 -1-1h-8a1 1 0 0 0 -1 1v3a4 4 0 0 1 -8 0v-3a1 1 0 0 0 -1-1h-8a1 1 0 0 0 -1 1v3a4 4 0 0 1 -8 0v-14a4 4 0 0 1 8 0v3a1 1 0 0 0 1 1h8a1 1 0 0 0 1-1v-3a4 4 0 0 0 8 0v3a1 1 0 0 0 1 1zm-12-29a7 7 0 1 1 7 7 7.008 7.008 0 0 1 -7-7zm7 9a8.971 8.971 0 0 0 2-.232v16.232a2 2 0 0 1 -4 0v-16.232a8.971 8.971 0 0 0 2 .232zm28 39a1 1 0 0 1 -1 1h-54a1 1 0 0 1 -1-1v-32a1 1 0 0 1 1-1h23v5.539a6.036 6.036 0 0 0 -2 4.461v2h-6v-2a6 6 0 0 0 -12 0v14a6 6 0 0 0 12 0v-2h6v2a6 6 0 0 0 12 0v-2h6v2a6 6 0 0 0 12 0v-14a6 6 0 0 0 -12 0v2h-6v-2a6.036 6.036 0 0 0 -2-4.461v-5.539h23a1 1 0 0 1 1 1z"/><path d="m35 11a3 3 0 1 0 -3 3 3 3 0 0 0 3-3zm-4 0a1 1 0 1 1 1 1 1 1 0 0 1 -1-1z"/><path d="m6 28h2v2h-2z"/><path d="m6 56h2v2h-2z"/><path d="m56 28h2v2h-2z"/><path d="m56 56h2v2h-2z"/></g></svg>