<svg id="Capa_1" enable-background="new 0 0 496.503 496.503" height="512" viewBox="0 0 496.503 496.503" width="512" xmlns="http://www.w3.org/2000/svg" xmlns:xlink="http://www.w3.org/1999/xlink"><linearGradient id="lg1"><stop offset="0" stop-color="#4f4a72"/><stop offset="1" stop-color="#3b395f"/></linearGradient><linearGradient id="SVGID_1_" gradientUnits="userSpaceOnUse" x1="248.252" x2="248.252" xlink:href="#lg1" y1="195.298" y2="276.298"/><linearGradient id="SVGID_2_" gradientUnits="userSpaceOnUse" x1="466.631" x2="492.596" y1="231.382" y2="262.635"><stop offset="0" stop-color="#ff4974"/><stop offset=".2231" stop-color="#fb3f6c"/><stop offset=".6075" stop-color="#f12357"/><stop offset="1" stop-color="#e4003d"/></linearGradient><linearGradient id="lg2"><stop offset="0" stop-color="#ffe548"/><stop offset=".1758" stop-color="#ffde50"/><stop offset=".4446" stop-color="#ffca65"/><stop offset=".7709" stop-color="#ffaa87"/><stop offset="1" stop-color="#ff90a4"/></linearGradient><linearGradient id="SVGID_3_" gradientUnits="userSpaceOnUse" x1="472.705" x2="488.431" xlink:href="#lg2" y1="252.277" y2="271.207"/><linearGradient id="lg3"><stop offset="0" stop-color="#3b395f" stop-opacity="0"/><stop offset="1" stop-color="#3b395f"/></linearGradient><linearGradient id="SVGID_4_" gradientUnits="userSpaceOnUse" x1="111.16" x2="111.16" xlink:href="#lg3" y1="190.298" y2="278.304"/><linearGradient id="SVGID_5_" gradientUnits="userSpaceOnUse" x1="385.18" x2="385.18" xlink:href="#lg3" y1="190.298" y2="278.304"/><linearGradient id="SVGID_6_" gradientUnits="userSpaceOnUse" x1="246.787" x2="246.787" xlink:href="#lg1" y1="278.298" y2="298.298"/><linearGradient id="lg4"><stop offset="0" stop-color="#a34a9e"/><stop offset=".1551" stop-color="#9b489a"/><stop offset=".4019" stop-color="#84438f"/><stop offset=".7073" stop-color="#5e3b7d"/><stop offset="1" stop-color="#343168"/></linearGradient><radialGradient id="SVGID_7_" cx="103.707" cy="269.274" gradientUnits="userSpaceOnUse" r="66.476" xlink:href="#lg4"/><linearGradient id="lg5"><stop offset="0" stop-color="#a34a9e"/><stop offset="1" stop-color="#343168"/></linearGradient><linearGradient id="SVGID_8_" gradientTransform="matrix(-1 0 0 -1 496.503 -1631.497)" gradientUnits="userSpaceOnUse" x1="336.97" x2="426.59" xlink:href="#lg5" y1="-1964.582" y2="-1874.961"/><linearGradient id="lg6"><stop offset="0" stop-color="#d4f7ff"/><stop offset="1" stop-color="#a2e3e9"/></linearGradient><linearGradient id="SVGID_9_" gradientUnits="userSpaceOnUse" x1="65.127" x2="150.408" xlink:href="#lg6" y1="238.679" y2="323.96"/><linearGradient id="SVGID_10_" gradientUnits="userSpaceOnUse" x1="71.656" x2="144.841" xlink:href="#lg1" y1="245.208" y2="318.393"/><linearGradient id="SVGID_11_" gradientUnits="userSpaceOnUse" x1="83.272" x2="132.97" xlink:href="#lg6" y1="259.111" y2="308.81"/><linearGradient id="SVGID_12_" gradientUnits="userSpaceOnUse" x1="142.293" x2="65.177" xlink:href="#lg6" y1="318.131" y2="241.016"/><linearGradient id="lg7"><stop offset="0" stop-color="#a2e3e9" stop-opacity="0"/><stop offset="1" stop-color="#518cd2"/></linearGradient><linearGradient id="SVGID_13_" gradientUnits="userSpaceOnUse" x1="143.603" x2="94.899" xlink:href="#lg7" y1="317.155" y2="268.451"/><linearGradient id="SVGID_14_" gradientUnits="userSpaceOnUse" x1="109.03" x2="119.849" xlink:href="#lg1" y1="282.581" y2="293.4"/><radialGradient id="SVGID_15_" cx="377.728" cy="269.274" gradientUnits="userSpaceOnUse" r="66.476" xlink:href="#lg4"/><linearGradient id="SVGID_16_" gradientTransform="matrix(-1 0 0 -1 496.503 -1631.497)" gradientUnits="userSpaceOnUse" x1="62.949" x2="152.569" xlink:href="#lg5" y1="-1964.582" y2="-1874.961"/><linearGradient id="SVGID_17_" gradientUnits="userSpaceOnUse" x1="339.148" x2="424.43" xlink:href="#lg6" y1="238.679" y2="323.96"/><linearGradient id="SVGID_18_" gradientUnits="userSpaceOnUse" x1="345.677" x2="418.863" xlink:href="#lg1" y1="245.208" y2="318.393"/><linearGradient id="SVGID_19_" gradientUnits="userSpaceOnUse" x1="357.293" x2="406.992" xlink:href="#lg6" y1="259.111" y2="308.81"/><linearGradient id="SVGID_20_" gradientUnits="userSpaceOnUse" x1="416.314" x2="339.199" xlink:href="#lg6" y1="318.131" y2="241.016"/><linearGradient id="SVGID_21_" gradientUnits="userSpaceOnUse" x1="417.624" x2="368.92" xlink:href="#lg7" y1="317.155" y2="268.451"/><linearGradient id="SVGID_22_" gradientUnits="userSpaceOnUse" x1="383.051" x2="393.87" xlink:href="#lg1" y1="282.581" y2="293.4"/><linearGradient id="SVGID_23_" gradientUnits="userSpaceOnUse" x1="250.475" x2="301.828" xlink:href="#lg3" y1="166.102" y2="260.804"/><linearGradient id="SVGID_24_" gradientUnits="userSpaceOnUse" x1="261.039" x2="287.304" y1="151.653" y2="236.357"><stop offset="0" stop-color="#c4f8b6"/><stop offset="1" stop-color="#3b8eac"/></linearGradient><linearGradient id="SVGID_25_" gradientTransform="matrix(-1 0 0 -1 496.165 -582.497)" gradientUnits="userSpaceOnUse" x1="195.324" x2="196.6" xlink:href="#lg1" y1="-803.294" y2="-792.753"/><linearGradient id="SVGID_26_" gradientUnits="userSpaceOnUse" x1="19.237" x2="19.237" xlink:href="#lg2" y1="238.756" y2="252.702"/><linearGradient id="SVGID_27_" gradientUnits="userSpaceOnUse" x1="210.24" x2="75.573" y1="243.531" y2="166.864"><stop offset="0" stop-color="#a34a9e" stop-opacity="0"/><stop offset="1" stop-color="#343168"/></linearGradient><linearGradient id="SVGID_28_" gradientUnits="userSpaceOnUse" x1="178.506" x2="178.506" xlink:href="#lg1" y1="197.214" y2="221.294"/><path d="m480.501 188.088c-26.764-.768-53.449-3.27-79.392-9.893l-41.174-10.511c-24.414-6.233-49.512-9.386-74.71-9.386h-17.389-5.093c-9.51 0-18.869 2.377-27.227 6.914l-76.653 41.616c-2.314-.173-4.656-.35-7.027-.53-81.794-6.218-126.523 22.154-145.268 38.681-6.662 5.874-8.489 15.513-4.407 23.402l6.269 12.115c5.368 10.374 16.074 16.888 27.754 16.888h417.566c12.085 0 23.324-6.207 29.76-16.436l9.773-15.533c2.103-3.343 3.219-7.212 3.219-11.162v-49.688c.001-8.943-7.12-16.222-16.001-16.477z" fill="url(#SVGID_1_)"/><path d="m496.5 223.838v30.41c0 3.95-1.11 7.82-3.22 11.17l-9.77 15.53c-1.67 2.66-3.67 5.05-5.92 7.12v-53.93c0-5.69 4.61-10.3 10.29-10.3z" fill="url(#SVGID_2_)"/><path d="m496.5 251.008v3.24c0 3.95-1.11 7.82-3.22 11.17l-9.77 15.53c-1.67 2.66-3.67 5.05-5.92 7.12v-34.31c0-1.51 1.24-2.75 2.75-2.75z" fill="url(#SVGID_3_)"/><path d="m185.16 284.707h-148c0-40.87 33.13-74 74-74 7 0 13.78.97 20.21 2.8 31.05 8.79 53.79 37.34 53.79 71.2z" fill="url(#SVGID_4_)"/><path d="m459.18 284.707h-148c0-18.22 6.58-34.9 17.51-47.8.81-1.17 1.73-2.27 2.74-3.28.59-.59 1.21-1.15 1.86-1.68 10.26-10.09 23.45-17.21 38.18-19.97 4.44-.83 9.03-1.27 13.71-1.27 40.87 0 74 33.13 74 74z" fill="url(#SVGID_5_)"/><path d="m73.794 273.599h345.984v25.028h-345.984z" fill="url(#SVGID_6_)"/><circle cx="111.159" cy="284.711" fill="url(#SVGID_7_)" r="53.494"/><circle cx="111.159" cy="284.711" fill="url(#SVGID_8_)" r="42.25"/><circle cx="111.159" cy="284.711" fill="url(#SVGID_9_)" r="40.204"/><circle cx="111.159" cy="284.711" fill="url(#SVGID_10_)" r="34.502"/><path d="m117.433 248.606 6.455 13.08c1.019 2.065 2.989 3.497 5.268 3.828l14.435 2.098c5.739.834 8.031 7.887 3.878 11.935l-10.445 10.181c-1.649 1.607-2.402 3.923-2.012 6.193l2.466 14.376c.98 5.716-5.019 10.075-10.152 7.376l-12.911-6.788c-2.038-1.072-4.474-1.072-6.512 0l-12.911 6.788c-5.133 2.699-11.133-1.66-10.152-7.376l2.466-14.376c.389-2.27-.363-4.586-2.012-6.193l-10.445-10.181c-4.153-4.048-1.861-11.101 3.878-11.935l14.435-2.098c2.279-.331 4.249-1.763 5.268-3.828l6.455-13.08c2.566-5.2 9.982-5.2 12.548 0z" fill="url(#SVGID_11_)"/><path d="m130.583 313.493c-.313 0-.617-.08-.93-.245l-12.911-6.788c-1.714-.901-3.645-1.378-5.583-1.378s-3.868.477-5.583 1.379l-12.911 6.787c-.313.165-.618.245-.931.245-.576 0-1.157-.28-1.552-.75-.38-.451-.52-.99-.415-1.602l2.466-14.376c.667-3.893-.622-7.862-3.45-10.619l-10.445-10.182c-.774-.754-.649-1.606-.506-2.047s.544-1.204 1.612-1.359l14.435-2.098c3.908-.568 7.285-3.022 9.033-6.563l6.456-13.08c.478-.969 1.327-1.113 1.79-1.113s1.313.144 1.791 1.113l6.456 13.08c1.748 3.542 5.125 5.995 9.033 6.563l14.435 2.098c1.069.155 1.469.918 1.612 1.359s.268 1.293-.505 2.047l-10.445 10.182c-2.828 2.757-4.117 6.726-3.45 10.619l2.466 14.376c.105.611-.035 1.15-.414 1.601-.398.471-.978.751-1.554.751z" fill="url(#SVGID_12_)"/><path d="m145.879 304.972c-3.49 5.98-8.48 10.97-14.45 14.46l-27.02-27.01c-2.14-1.88-3.51-4.63-3.51-7.71 0-5.67 4.6-10.26 10.26-10.26 3.08 0 5.83 1.36 7.71 3.51z" fill="url(#SVGID_13_)"/><circle cx="111.159" cy="284.711" fill="url(#SVGID_14_)" r="10.256"/><circle cx="385.18" cy="284.711" fill="url(#SVGID_15_)" r="53.494"/><circle cx="385.18" cy="284.711" fill="url(#SVGID_16_)" r="42.25"/><circle cx="385.18" cy="284.711" fill="url(#SVGID_17_)" r="40.205"/><circle cx="385.18" cy="284.711" fill="url(#SVGID_18_)" r="34.502"/><path d="m391.455 248.606 6.455 13.08c1.019 2.065 2.989 3.497 5.268 3.828l14.435 2.098c5.739.834 8.031 7.887 3.878 11.935l-10.445 10.181c-1.649 1.607-2.402 3.923-2.012 6.193l2.466 14.376c.98 5.716-5.019 10.075-10.152 7.376l-12.911-6.788c-2.038-1.072-4.474-1.072-6.512 0l-12.911 6.788c-5.133 2.699-11.133-1.66-10.152-7.376l2.466-14.376c.389-2.27-.363-4.586-2.012-6.193l-10.445-10.181c-4.153-4.048-1.861-11.101 3.878-11.935l14.435-2.098c2.279-.331 4.249-1.763 5.268-3.828l6.455-13.08c2.565-5.2 9.981-5.2 12.548 0z" fill="url(#SVGID_19_)"/><path d="m404.604 313.493c-.313 0-.617-.08-.93-.245l-12.911-6.788c-1.714-.901-3.645-1.378-5.582-1.378s-3.868.477-5.583 1.379l-12.911 6.787c-.313.165-.618.245-.931.245-.576 0-1.157-.28-1.552-.75-.38-.451-.52-.99-.414-1.602l2.466-14.376c.667-3.893-.623-7.862-3.45-10.619l-10.445-10.182c-.774-.754-.649-1.606-.506-2.047s.543-1.204 1.612-1.359l14.435-2.098c3.908-.568 7.285-3.022 9.033-6.563l6.456-13.08c.478-.969 1.327-1.113 1.791-1.113.463 0 1.313.144 1.79 1.113l6.456 13.08c1.748 3.542 5.125 5.995 9.033 6.563l14.435 2.098c1.069.155 1.469.918 1.612 1.359s.268 1.293-.505 2.047l-10.445 10.182c-2.828 2.757-4.117 6.726-3.45 10.619l2.466 14.376c.105.611-.035 1.15-.415 1.601-.398.471-.978.751-1.555.751z" fill="url(#SVGID_20_)"/><path d="m419.9 304.972c-3.49 5.98-8.48 10.97-14.45 14.46l-27.02-27.01c-2.14-1.88-3.51-4.63-3.51-7.71 0-5.67 4.6-10.26 10.26-10.26 3.08 0 5.83 1.36 7.71 3.51z" fill="url(#SVGID_21_)"/><circle cx="385.18" cy="284.711" fill="url(#SVGID_22_)" r="10.256"/><path d="m235.516 165.212-76.653 41.616c18.91 10.031 28.019 36.461 31.644 50.519 1.382 5.359 6.213 9.096 11.748 9.096h88.936c5.286 0 10.104-3.027 12.398-7.789 11.917-24.736 32.807-44.013 58.423-53.896 2.676-1.032 5.306-2.037 7.824-2.985 8.03-3.023 9.314-13.939 2.131-18.633-32.856-21.472-104.132-24.842-104.132-24.842h-5.093c-9.509 0-18.868 2.377-27.226 6.914z" fill="url(#SVGID_23_)"/><path d="m367.628 189.837c-28.877-19.526-92.84-23.332-96.605-23.539h-4.725c-7.877 0-15.701 2.056-22.625 5.945l-60.272 33.859c-.841.472-.517 1.794.44 1.794h134.14c12.325 0 24.46-2.858 35.694-8.103 1.897-.885 3.823-1.719 5.776-2.499 2.606-1.041 5.168-2.053 7.622-3.009 1.235-.481 1.525-1.545 1.588-2.137.074-.686-.046-1.644-1.033-2.311z" fill="url(#SVGID_24_)"/><path d="m293.507 214.944h14.662c3.222 0 5.833 2.612 5.833 5.833 0 3.222-2.612 5.833-5.833 5.833h-14.662c-3.222 0-5.833-2.612-5.833-5.833 0-3.221 2.612-5.833 5.833-5.833z" fill="url(#SVGID_25_)"/><path d="m36.692 241.359c3.471-3.589.501-9.548-4.454-8.929-3.663.458-7.708 1.081-11.724 1.925-5.677 3.761-10.308 7.416-13.946 10.624-3.44 3.033-5.579 7.072-6.293 11.354l8.444-1.038c10.645-1.309 20.518-6.228 27.973-13.936z" fill="url(#SVGID_26_)"/><path d="m186.197 198.723c-.426-1.35-1.673-2.335-3.163-2.335-6.842 0-12.388 5.546-12.388 12.388v3.864c0 3.973 1.878 7.5 4.786 9.767l75.113 76.219h34.45z" fill="url(#SVGID_27_)"/><path d="m183.034 225.029c-6.842 0-12.388-5.546-12.388-12.388v-3.864c0-6.842 5.546-12.388 12.388-12.388 1.84 0 3.332 1.492 3.332 3.332v21.976c0 1.84-1.492 3.332-3.332 3.332z" fill="url(#SVGID_28_)"/></svg>