<?xml version="1.0" encoding="iso-8859-1"?>
<!-- Generator: Adobe Illustrator 16.0.0, SVG Export Plug-In . SVG Version: 6.00 Build 0)  -->
<!DOCTYPE svg PUBLIC "-//W3C//DTD SVG 1.1//EN" "http://www.w3.org/Graphics/SVG/1.1/DTD/svg11.dtd">
<svg version="1.1" id="Capa_1" xmlns="http://www.w3.org/2000/svg" xmlns:xlink="http://www.w3.org/1999/xlink" x="0px" y="0px"
	 width="49.001px" height="49.001px" viewBox="0 0 49.001 49.001" style="enable-background:new 0 0 49.001 49.001;"
	 xml:space="preserve">
<g>
	<path d="M47.988,13.096h-1.016v-2.539c0-0.282-0.227-0.506-0.506-0.506h-4.131V5.289c0-0.842-0.682-1.524-1.523-1.524H8.189
		c-0.842,0-1.524,0.682-1.524,1.524v4.761H2.536c-0.28,0-0.507,0.226-0.507,0.508v2.539H1.015C0.454,13.097,0,13.552,0,14.113v5.332
		c0,0.561,0.454,1.016,1.015,1.016h1.014V23c0,0.281,0.227,0.507,0.507,0.507h4.129v4.464H6.627c-0.842,0-1.523,0.682-1.523,1.522
		v5.924c0,0.504,0.248,0.947,0.625,1.225c-0.377,0.277-0.625,0.723-0.625,1.227v2.379c0,0.842,0.682,1.523,1.523,1.523h0.764v2.451
		c0,0.561,0.689,1.014,1.541,1.014h5.138c0.851,0,1.539-0.453,1.539-1.014v-2.453h17.778v2.451c0,0.561,0.689,1.014,1.545,1.014
		h5.137c0.854,0,1.541-0.453,1.541-1.014v-2.451h0.764c0.842,0,1.525-0.684,1.525-1.523v-2.379c0-0.504-0.25-0.947-0.627-1.227
		c0.377-0.275,0.627-0.721,0.627-1.225v-5.924c0-0.842-0.685-1.523-1.525-1.523h-0.036v-4.462h4.127
		c0.281,0,0.509-0.227,0.509-0.508v-2.539h1.012c0.564,0,1.017-0.455,1.017-1.016v-5.332C49.003,13.551,48.549,13.096,47.988,13.096
		z M6.665,22.492H3.043V20.46h1.014c0.562,0,1.016-0.455,1.016-1.015v-5.333c0-0.561-0.454-1.015-1.016-1.015H3.043v-2.031h3.621
		L6.665,22.492L6.665,22.492z M8.907,40.498c-0.772,0-1.397-0.625-1.397-1.396s0.627-1.395,1.397-1.395
		c0.77,0,1.396,0.625,1.396,1.395C10.303,39.875,9.678,40.498,8.907,40.498z M12.63,40.498c-0.772,0-1.396-0.625-1.396-1.396
		s0.626-1.395,1.396-1.395c0.772,0,1.396,0.625,1.396,1.395C14.026,39.875,13.402,40.498,12.63,40.498z M14.259,34.744H7.488v-4.147
		h6.771V34.744z M32.541,36.816H16.459v-1.845h16.082V36.816L32.541,36.816z M32.541,33.906H16.459v-2.312h16.082V33.906
		L32.541,33.906z M32.541,30.527H16.459v-2.311h16.082V30.527L32.541,30.527z M32.541,27.151H16.459v-2.31h16.082V27.151
		L32.541,27.151z M9.712,17.633V6.813h29.577v10.82H9.712z M36.373,40.498c-0.775,0-1.396-0.625-1.396-1.396
		s0.625-1.395,1.396-1.395s1.395,0.625,1.395,1.395C37.768,39.875,37.145,40.498,36.373,40.498z M40.094,40.498
		c-0.771,0-1.394-0.625-1.394-1.396s0.625-1.395,1.394-1.395c0.775,0,1.398,0.625,1.398,1.395
		C41.492,39.875,40.865,40.498,40.094,40.498z M41.512,34.744h-6.771v-4.147h6.771V34.744z M45.957,13.096h-1.016
		c-0.562,0-1.014,0.455-1.014,1.016v5.332c0,0.561,0.451,1.016,1.014,1.016h1.016v2.031h-3.624V11.065h3.624V13.096z"/>
</g>
<g>
</g>
<g>
</g>
<g>
</g>
<g>
</g>
<g>
</g>
<g>
</g>
<g>
</g>
<g>
</g>
<g>
</g>
<g>
</g>
<g>
</g>
<g>
</g>
<g>
</g>
<g>
</g>
<g>
</g>
</svg>
