<svg width="585.239990234375px" height="124.439990234375px" xmlns="http://www.w3.org/2000/svg" viewBox="-42.6199951171875 12.780004882812499 585.239990234375 124.439990234375" style="background: rgb(0, 0, 0) none repeat scroll 0% 0%;" preserveAspectRatio="xMidYMid"><defs><filter id="editing-extrude-glow"><feFlood flood-color="#000000" result="flood-1"></feFlood><feMorphology operator="erode" radius="1" in="SourceAlpha" result="erode"></feMorphology><feComposite operator="in" in="flood-1" in2="erode" result="comp1"></feComposite><feConvolveMatrix order="3,3" divisor="1" in="comp1" result="convolve" kernelMatrix="0 0 0 1 1 1 0 0 0"></feConvolveMatrix><feOffset dx="-3" dy="0" in="convolve" result="extrude"></feOffset><feComposite operator="in" in="flood-1" in2="extrude" result="comp-extrude"></feComposite><feFlood flood-color="#000000" result="flood-2"></feFlood><feComposite operator="in" in="flood-2" in2="SourceAlpha" result="comp2"></feComposite><feMorphology operator="dilate" radius="1" in="comp2" result="dilate"></feMorphology><feOffset dx="-4.5" dy="0" in="dilate" result="offset"></feOffset><feGaussianBlur in="offset" stdDeviation="5.8" result="blur"></feGaussianBlur><feComponentTransfer in="blur" result="shadow"><feFuncA type="linear" slope="0.8" intercept="-0.2"></feFuncA></feComponentTransfer><feMerge><feMergeNode in="shadow"></feMergeNode><feMergeNode in="comp-extrude"></feMergeNode><feMergeNode in="SourceGraphic"></feMergeNode></feMerge></filter></defs><g filter="url(#editing-extrude-glow)"><g transform="translate(43.121097564697266, 99)"><path d="M3.87-1.92L3.87-1.92L3.87-1.92Q2.37-3.58 1.70-6.21L1.70-6.21L1.70-6.21Q1.02-8.83 1.02-13.12L1.02-13.12L1.02-13.12Q1.02-17.41 2.50-21.31L2.50-21.31L2.50-21.31Q3.97-25.22 6.66-28.03L6.66-28.03L6.66-28.03Q12.16-33.92 21.25-33.92L21.25-33.92L21.25-33.92Q24.51-33.92 26.88-32.83L26.88-32.83L37.82-33.92L33.09-8.96L33.09-8.96Q32.90-8.19 32.90-6.78L32.90-6.78L32.90-6.78Q32.90-5.38 33.76-4.48L33.76-4.48L33.76-4.48Q34.62-3.58 35.90-3.46L35.90-3.46L35.90-3.46Q35.26-1.28 32.93 0L32.93 0L32.93 0Q30.59 1.28 27.97 1.28L27.97 1.28L27.97 1.28Q25.34 1.28 23.58 0.29L23.58 0.29L23.58 0.29Q21.82-0.70 21.31-2.37L21.31-2.37L21.31-2.37Q20.29-0.77 18.11 0.26L18.11 0.26L18.11 0.26Q15.94 1.28 13.02 1.28L13.02 1.28L13.02 1.28Q10.11 1.28 7.74 0.51L7.74 0.51L7.74 0.51Q5.38-0.26 3.87-1.92ZM17.38-27.90L17.38-27.90L17.38-27.90Q16.64-26.75 16-24.80L16-24.80L16-24.80Q15.36-22.85 14.30-17.63L14.30-17.63L14.30-17.63Q13.25-12.42 13.25-8.70L13.25-8.70L13.25-8.70Q13.25-4.99 13.82-3.90L13.82-3.90L13.82-3.90Q14.40-2.82 15.42-2.82L15.42-2.82L15.42-2.82Q17.47-2.82 18.98-4.77L18.98-4.77L18.98-4.77Q20.48-6.72 21.06-10.18L21.06-10.18L24.45-28.93L24.45-28.93Q23.10-30.08 21.54-30.08L21.54-30.08L21.54-30.08Q19.97-30.08 19.04-29.57L19.04-29.57L19.04-29.57Q18.11-29.06 17.38-27.90ZM61.82-2.69L61.82-2.69L61.82-2.69Q58.75 1.28 51.14 1.28L51.14 1.28L51.14 1.28Q47.17 1.28 44.29-1.12L44.29-1.12L44.29-1.12Q41.41-3.52 41.41-6.98L41.41-6.98L41.41-6.98Q41.41-8.90 41.60-9.86L41.60-9.86L45.89-32.64L58.88-33.92L54.21-9.22L54.21-9.22Q53.95-7.81 53.95-6.98L53.95-6.98L53.95-6.98Q53.95-3.26 56.19-3.26L56.19-3.26L56.19-3.26Q58.69-3.26 60.48-6.66L60.48-6.66L60.48-6.66Q61.06-7.74 61.31-9.15L61.31-9.15L65.86-32.64L78.46-33.92L73.73-8.96L73.73-8.96Q73.54-8 73.54-6.98L73.54-6.98L73.54-6.98Q73.54-5.95 74.11-4.83L74.11-4.83L74.11-4.83Q74.69-3.71 76.54-3.46L76.54-3.46L76.54-3.46Q76.16-1.92 74.82-0.90L74.82-0.90L74.82-0.90Q72 1.28 68.96 1.28L68.96 1.28L68.96 1.28Q65.92 1.28 64.13 0.19L64.13 0.19L64.13 0.19Q62.34-0.90 61.82-2.69ZM82.94-6.40L82.94-6.40L82.94-6.40Q82.94-8.13 83.84-12.48L83.84-12.48L87.23-29.76L83.46-29.76L83.71-31.68L83.71-31.68Q91.39-33.98 98.82-39.62L98.82-39.62L101.89-39.62L100.35-32.64L105.34-32.64L104.77-29.76L99.84-29.76L96.58-12.48L96.58-12.48Q95.74-8.51 95.74-7.17L95.74-7.17L95.74-7.17Q95.74-4.10 98.43-3.46L98.43-3.46L98.43-3.46Q97.79-1.28 95.49 0L95.49 0L95.49 0Q93.18 1.28 89.92 1.28L89.92 1.28L89.92 1.28Q86.66 1.28 84.80-0.77L84.80-0.77L84.80-0.77Q82.94-2.82 82.94-6.40ZM118.72 1.28L118.72 1.28L118.72 1.28Q104.64 1.28 104.64-11.97L104.64-11.97L104.64-11.97Q104.64-21.38 109.82-27.46L109.82-27.46L109.82-27.46Q115.33-33.92 124.86-33.92L124.86-33.92L124.86-33.92Q131.78-33.92 135.30-30.72L135.30-30.72L135.30-30.72Q138.82-27.52 138.82-20.80L138.82-20.80L138.82-20.80Q138.82-10.56 133.31-4.61L133.31-4.61L133.31-4.61Q127.94 1.28 118.72 1.28ZM120.38-26.56L120.38-26.56L120.38-26.56Q119.62-24.83 119.01-22.24L119.01-22.24L119.01-22.24Q118.40-19.65 117.63-15.55L117.63-15.55L117.63-15.55Q116.86-11.46 116.86-6.40L116.86-6.40L116.86-6.40Q116.86-4.74 117.41-3.65L117.41-3.65L117.41-3.65Q117.95-2.56 119.42-2.56L119.42-2.56L119.42-2.56Q120.90-2.56 121.82-3.26L121.82-3.26L121.82-3.26Q122.75-3.97 123.46-5.63L123.46-5.63L123.46-5.63Q124.74-8.58 125.76-14.05L125.76-14.05L125.76-14.05Q126.78-19.52 126.88-21.89L126.88-21.89L126.88-21.89Q126.98-24.26 126.98-26.02L126.98-26.02L126.98-26.02Q126.98-27.78 126.46-28.93L126.46-28.93L126.46-28.93Q125.95-30.08 124.51-30.08L124.51-30.08L124.51-30.08Q123.07-30.08 122.11-29.18L122.11-29.18L122.11-29.18Q121.15-28.29 120.38-26.56ZM157.89-3.52L157.89-3.52L157.89-3.52Q155.90 1.28 149.57 1.28L149.57 1.28L149.57 1.28Q146.37 1.28 144.32-0.96L144.32-0.96L144.32-0.96Q142.66-2.82 142.66-4.93L142.66-4.93L142.66-4.93Q142.66-9.73 144.90-20.22L144.90-20.22L149.57-44.80L162.56-46.08L156.35-13.70L156.35-13.70Q155.26-8.96 155.26-7.30L155.26-7.30L155.26-7.30Q155.26-3.65 157.89-3.52ZM178.69-3.52L178.69-3.52L178.69-3.52Q176.70 1.28 170.37 1.28L170.37 1.28L170.37 1.28Q167.10 1.28 165.06-0.96L165.06-0.96L165.06-0.96Q163.33-2.94 163.33-4.93L163.33-4.93L163.33-4.93Q163.33-10.11 165.70-20.22L165.70-20.22L168.06-32.64L181.06-33.92L177.15-13.70L177.15-13.70Q176.06-8.96 176.06-7.30L176.06-7.30L176.06-7.30Q176.06-3.65 178.69-3.52ZM169.22-41.54L169.22-41.54L169.22-41.54Q169.22-44.03 171.30-45.38L171.30-45.38L171.30-45.38Q173.38-46.72 176.38-46.72L176.38-46.72L176.38-46.72Q179.39-46.72 181.22-45.38L181.22-45.38L181.22-45.38Q183.04-44.03 183.04-41.54L183.04-41.54L183.04-41.54Q183.04-39.04 181.02-37.76L181.02-37.76L181.02-37.76Q179.01-36.48 176.00-36.48L176.00-36.48L176.00-36.48Q172.99-36.48 171.10-37.76L171.10-37.76L171.10-37.76Q169.22-39.04 169.22-41.54ZM203.26-22.46L203.26-22.46L203.26-22.46Q204.16-24.83 204.16-26.88L204.16-26.88L204.16-26.88Q204.16-30.66 201.09-30.66L201.09-30.66L201.09-30.66Q199.49-30.66 198.18-29.22L198.18-29.22L198.18-29.22Q196.86-27.78 196.86-25.98L196.86-25.98L196.86-25.98Q196.86-24.70 197.89-23.68L197.89-23.68L197.89-23.68Q199.36-22.27 203.14-19.97L203.14-19.97L203.14-19.97Q206.91-17.66 208.35-15.78L208.35-15.78L208.35-15.78Q209.79-13.89 209.79-11.30L209.79-11.30L209.79-11.30Q209.79-8.70 208.54-6.34L208.54-6.34L208.54-6.34Q207.30-3.97 205.06-2.30L205.06-2.30L205.06-2.30Q200.26 1.28 192.58 1.28L192.58 1.28L192.58 1.28Q188.42 1.28 185.22-0.90L185.22-0.90L185.22-0.90Q182.02-3.01 182.02-5.50L182.02-5.50L182.02-5.50Q182.02-8 183.84-9.47L183.84-9.47L183.84-9.47Q185.66-10.94 188.35-10.94L188.35-10.94L188.35-10.94Q191.04-10.94 192.70-9.92L192.70-9.92L192.70-9.92Q191.87-7.81 191.87-6.40L191.87-6.40L191.87-6.40Q191.87-2.18 195.46-2.18L195.46-2.18L195.46-2.18Q196.99-2.18 198.02-3.14L198.02-3.14L198.02-3.14Q199.04-4.10 199.04-5.76L199.04-5.76L199.04-5.76Q199.04-9.02 193.54-12.48L193.54-12.48L193.54-12.48Q189.06-15.42 188.03-16.58L188.03-16.58L188.03-16.58Q186.30-18.62 186.30-21.18L186.30-21.18L186.30-21.18Q186.30-23.74 187.52-26.18L187.52-26.18L187.52-26.18Q188.74-28.61 190.98-30.34L190.98-30.34L190.98-30.34Q195.65-33.92 203.78-33.92L203.78-33.92L203.78-33.92Q207.94-33.92 210.40-32.26L210.40-32.26L210.40-32.26Q212.86-30.59 212.86-27.78L212.86-27.78L212.86-27.78Q212.86-24.96 211.17-23.36L211.17-23.36L211.17-23.36Q209.47-21.76 206.40-21.76L206.40-21.76L206.40-21.76Q204.29-21.76 203.26-22.46ZM216.26-6.40L216.26-6.40L216.26-6.40Q216.26-8.13 217.15-12.48L217.15-12.48L220.54-29.76L216.77-29.76L217.02-31.68L217.02-31.68Q224.70-33.98 232.13-39.62L232.13-39.62L235.20-39.62L233.66-32.64L238.66-32.64L238.08-29.76L233.15-29.76L229.89-12.48L229.89-12.48Q229.06-8.51 229.06-7.17L229.06-7.17L229.06-7.17Q229.06-4.10 231.74-3.46L231.74-3.46L231.74-3.46Q231.10-1.28 228.80 0L228.80 0L228.80 0Q226.50 1.28 223.23 1.28L223.23 1.28L223.23 1.28Q219.97 1.28 218.11-0.77L218.11-0.77L218.11-0.77Q216.26-2.82 216.26-6.40ZM236.42-3.78L236.42-3.78L236.42-3.78Q236.42-6.21 238.30-7.55L238.30-7.55L238.30-7.55Q240.19-8.90 242.88-8.90L242.88-8.90L242.88-8.90Q245.57-8.90 247.20-7.55L247.20-7.55L247.20-7.55Q248.83-6.21 248.83-3.78L248.83-3.78L248.83-3.78Q248.83-1.34 247.01-0.03L247.01-0.03L247.01-0.03Q245.18 1.28 242.50 1.28L242.50 1.28L242.50 1.28Q239.81 1.28 238.11-0.03L238.11-0.03L238.11-0.03Q236.42-1.34 236.42-3.78ZM286.21-26.62L286.21-26.62L286.21-26.62Q286.21-23.94 283.97-22.27L283.97-22.27L283.97-22.27Q281.73-20.61 278.08-20.61L278.08-20.61L278.08-20.61Q276.54-20.61 275.65-21.06L275.65-21.06L275.65-21.06Q276.35-22.72 276.58-24.80L276.58-24.80L276.58-24.80Q276.80-26.88 276.80-27.46L276.80-27.46L276.80-27.46Q276.80-30.14 274.94-30.14L274.94-30.14L274.94-30.14Q273.66-30.14 272.22-28.54L272.22-28.54L272.22-28.54Q270.78-26.94 269.57-24.45L269.57-24.45L269.57-24.45Q266.88-18.69 266.88-12.86L266.88-12.86L266.88-12.86Q266.88-9.66 268.10-8.22L268.10-8.22L268.10-8.22Q269.31-6.78 272-6.78L272-6.78L272-6.78Q275.71-6.78 278.66-9.86L278.66-9.86L278.66-9.86Q279.49-10.82 279.94-11.90L279.94-11.90L279.94-11.90Q282.37-10.62 282.37-7.10L282.37-7.10L282.37-7.10Q282.37-3.52 278.40-1.15L278.40-1.15L278.40-1.15Q274.30 1.28 267.78 1.28L267.78 1.28L267.78 1.28Q254.78 1.28 254.78-12.48L254.78-12.48L254.78-12.48Q254.78-22.53 260.48-28.29L260.48-28.29L260.48-28.29Q265.98-33.92 276.10-33.92L276.10-33.92L276.10-33.92Q286.21-33.92 286.21-26.62ZM301.89 1.28L301.89 1.28L301.89 1.28Q287.81 1.28 287.81-11.97L287.81-11.97L287.81-11.97Q287.81-21.38 292.99-27.46L292.99-27.46L292.99-27.46Q298.50-33.92 308.03-33.92L308.03-33.92L308.03-33.92Q314.94-33.92 318.46-30.72L318.46-30.72L318.46-30.72Q321.98-27.52 321.98-20.80L321.98-20.80L321.98-20.80Q321.98-10.56 316.48-4.61L316.48-4.61L316.48-4.61Q311.10 1.28 301.89 1.28ZM303.55-26.56L303.55-26.56L303.55-26.56Q302.78-24.83 302.18-22.24L302.18-22.24L302.18-22.24Q301.57-19.65 300.80-15.55L300.80-15.55L300.80-15.55Q300.03-11.46 300.03-6.40L300.03-6.40L300.03-6.40Q300.03-4.74 300.58-3.65L300.58-3.65L300.58-3.65Q301.12-2.56 302.59-2.56L302.59-2.56L302.59-2.56Q304.06-2.56 304.99-3.26L304.99-3.26L304.99-3.26Q305.92-3.97 306.62-5.63L306.62-5.63L306.62-5.63Q307.90-8.58 308.93-14.05L308.93-14.05L308.93-14.05Q309.95-19.52 310.05-21.89L310.05-21.89L310.05-21.89Q310.14-24.26 310.14-26.02L310.14-26.02L310.14-26.02Q310.14-27.78 309.63-28.93L309.63-28.93L309.63-28.93Q309.12-30.08 307.68-30.08L307.68-30.08L307.68-30.08Q306.24-30.08 305.28-29.18L305.28-29.18L305.28-29.18Q304.32-28.29 303.55-26.56ZM323.84-3.78L323.84-3.78L323.84-3.78Q323.84-6.21 325.73-7.55L325.73-7.55L325.73-7.55Q327.62-8.90 330.30-8.90L330.30-8.90L330.30-8.90Q332.99-8.90 334.62-7.55L334.62-7.55L334.62-7.55Q336.26-6.21 336.26-3.78L336.26-3.78L336.26-3.78Q336.26-1.34 334.43-0.03L334.43-0.03L334.43-0.03Q332.61 1.28 329.92 1.28L329.92 1.28L329.92 1.28Q327.23 1.28 325.54-0.03L325.54-0.03L325.54-0.03Q323.84-1.34 323.84-3.78ZM358.72-30.34L358.72-30.34L358.72-30.34Q362.18-33.92 369.47-33.92L369.47-33.92L369.47-33.92Q373.50-33.92 375.71-31.78L375.71-31.78L375.71-31.78Q377.92-29.63 377.92-25.70L377.92-25.70L377.92-25.70Q377.92-21.76 375.71-18.98L375.71-18.98L375.71-18.98Q373.50-16.19 369.41-15.04L369.41-15.04L369.41-15.04Q369.73-13.76 370.18-12.42L370.18-12.42L371.07-9.86L371.07-9.86Q372.29-6.59 373.25-5.44L373.25-5.44L373.25-5.44Q374.21-4.29 375.49-3.90L375.49-3.90L375.49-3.90Q374.78-1.28 372.22 0.13L372.22 0.13L372.22 0.13Q370.18 1.28 367.36 1.28L367.36 1.28L367.36 1.28Q359.10 1.28 358.02-11.46L358.02-11.46L358.02-11.46Q357.82-13.25 357.82-15.04L357.82-15.04L357.82-15.04Q361.02-15.94 363.26-18.94L363.26-18.94L363.26-18.94Q365.50-21.95 365.50-25.47L365.50-25.47L365.50-25.47Q365.50-28.99 363.01-28.99L363.01-28.99L363.01-28.99Q361.22-28.99 359.81-27.01L359.81-27.01L359.81-27.01Q358.40-25.02 357.76-21.63L357.76-21.63L353.54 0L340.61 1.28L349.57-44.80L362.43-46.08L360.96-38.46L360.96-38.46Q360-33.09 358.72-30.34ZM406.78-10.82L406.78-10.82L406.78-10.82Q408.38-9.73 408.38-7.33L408.38-7.33L408.38-7.33Q408.38-4.93 407.17-3.39L407.17-3.39L407.17-3.39Q405.95-1.86 403.97-0.83L403.97-0.83L403.97-0.83Q399.87 1.28 395.46 1.28L395.46 1.28L395.46 1.28Q391.04 1.28 388.45 0.32L388.45 0.32L388.45 0.32Q385.86-0.64 384.13-2.43L384.13-2.43L384.13-2.43Q380.74-5.82 380.74-12.03L380.74-12.03L380.74-12.03Q380.74-21.70 385.98-27.58L385.98-27.58L385.98-27.58Q391.62-33.92 401.41-33.92L401.41-33.92L401.41-33.92Q407.49-33.92 410.50-31.36L410.50-31.36L410.50-31.36Q412.74-29.44 412.74-26.30L412.74-26.30L412.74-26.30Q412.74-15.04 393.28-15.04L393.28-15.04L393.28-15.04Q393.02-13.38 393.02-11.97L393.02-11.97L393.02-11.97Q393.02-9.02 394.34-7.90L394.34-7.90L394.34-7.90Q395.65-6.78 398.08-6.78L398.08-6.78L398.08-6.78Q400.51-6.78 403.10-7.90L403.10-7.90L403.10-7.90Q405.70-9.02 406.78-10.82ZM393.73-17.79L393.73-17.79L393.73-17.79Q398.27-17.79 400.90-20.61L400.90-20.61L400.90-20.61Q403.52-23.30 403.52-27.58L403.52-27.58L403.52-27.58Q403.52-29.06 402.98-29.86L402.98-29.86L402.98-29.86Q402.43-30.66 401.34-30.66L401.34-30.66L401.34-30.66Q400.26-30.66 399.33-30.24L399.33-30.24L399.33-30.24Q398.40-29.82 397.44-28.42L397.44-28.42L397.44-28.42Q395.07-25.22 393.73-17.79Z" fill="#000000"></path></g></g><style>text {
  font-size: 64px;
  font-family: Arial Black;
  dominant-baseline: central;
  text-anchor: middle;
}</style></svg>