<?xml version="1.0" encoding="iso-8859-1"?>
<!-- Generator: Adobe Illustrator 19.0.0, SVG Export Plug-In . SVG Version: 6.00 Build 0)  -->
<svg version="1.1" id="Capa_1" xmlns="http://www.w3.org/2000/svg" xmlns:xlink="http://www.w3.org/1999/xlink" x="0px" y="0px"
	 viewBox="0 0 480 480" style="enable-background:new 0 0 480 480;" xml:space="preserve">
<g>
	<g>
		<path d="M460,96V48c0-2.973-1.648-5.695-4.273-7.082c-2.633-1.379-5.805-1.195-8.258,0.488L332.16,120.681
			c-2.722-0.403-5.452-0.681-8.16-0.681h-8V96h8c13.234,0,24-10.766,24-24V24c0-13.234-10.766-24-24-24H196
			c-13.234,0-24,10.766-24,24v48c0,13.234,10.766,24,24,24h8v24h-8c-30.875,0-56,25.121-56,56v76.791l-76.531,52.615l0.048,0.069
			c-0.4,0.275-0.821,0.516-1.173,0.868l-40,40c-1.5,1.5-2.344,3.535-2.344,5.656v88c0,4.418,3.578,8,8,8h40c4.422,0,8-3.582,8-8v-72
			h64v16.809c-18.234,3.717-32,19.876-32,39.191v48c0,4.418,3.578,8,8,8h288c4.422,0,8-3.582,8-8v-48
			c0-19.315-13.766-35.474-32-39.191V368h72c4.422,0,8-3.582,8-8v-48c0-4.418-3.578-8-8-8h-72V176
			c0-6.385-1.099-12.603-3.223-18.575l79.754-54.832C458.703,101.102,460,98.633,460,96z M60,432H36v-76.688l24-24V432z M196,80
			c-4.414,0-8-3.59-8-8V24c0-4.41,3.586-8,8-8h128c4.414,0,8,3.59,8,8v48c0,4.41-3.586,8-8,8H196z M300,96v24h-80V96H300z M156,176
			c0-22.055,17.945-40,40-40h113.878L156,241.791V176z M396,424v40H124v-40c0-13.234,10.766-24,24-24h224
			C385.234,400,396,410.766,396,424z M156,384v-16h208v16H156z M444,320v32H76v-32H444z M163.579,304l199.366-137.065
			c0.698,2.959,1.055,5.986,1.055,9.065v128H163.579z M444,91.793L135.334,304H93.758L444,63.207V91.793z"/>
	</g>
</g>
<g>
</g>
<g>
</g>
<g>
</g>
<g>
</g>
<g>
</g>
<g>
</g>
<g>
</g>
<g>
</g>
<g>
</g>
<g>
</g>
<g>
</g>
<g>
</g>
<g>
</g>
<g>
</g>
<g>
</g>
</svg>
