<svg xmlns="http://www.w3.org/2000/svg" data-name="Layer 1" viewBox="0 0 512 512"><path fill="#ffe64e" d="M304.5,269.34,256.26,352.8999,256,353.34,170.17,502a4.99374,4.99374,0,0,1-8.57.14l-27.69-44.61a4.98247,4.98247,0,0,0-4.09-2.36011L77.35,453.5a5.00053,5.00053,0,0,1-4.17-7.5l75.08-130.05L207.5,213.34Z"/><path fill="#ffe64e" d="M434.65,453.5l-52.47009,1.66992a4.98226,4.98226,0,0,0-4.08984,2.36011L350.4,502.14a4.99374,4.99374,0,0,1-8.57-.14L256,353.34l-.26-.44007L207.5,269.34l97-56,59.24,102.61L438.82007,446A5.00062,5.00062,0,0,1,434.65,453.5Z"/><path fill="#ffcd85" d="M435.02738,178.8673c0,18.2339-22.39841,32.70524-27.74059,49.15822-5.53681,17.05239,3.88592,41.88867-6.4439,56.08251-10.43307,14.33571-37.03514,12.9982-51.37086,23.43127-14.19363,10.32966-21.08448,36.10013-38.13658,41.63693-16.4532,5.34233-37.10128-11.28156-55.33545-11.28156-18.23391,0-38.8817,16.624-55.33468,11.28181-17.05239-5.53681-23.94354-31.30738-38.13738-41.6372-14.33571-10.43308-40.93779-9.09557-51.37085-23.43128-10.32967-14.19363-.90686-39.0297-6.44366-56.0818C99.3711,211.573,76.97262,197.10147,76.97262,178.8673c0-18.23391,22.39841-32.70524,27.74059-49.15823,5.53681-17.05238-3.88592-41.88867,6.4439-56.0825,10.43307-14.33571,37.03515-12.9982,51.37086-23.43127,14.19363-10.32967,21.08448-36.10013,38.13658-41.63693C217.11775,3.216,237.76583,19.83992,256,19.83992c18.2339,0,38.88169-16.624,55.33468-11.2818,17.05239,5.53681,23.94354,31.30738,38.13738,41.6372,14.33571,10.43307,40.93779,9.09557,51.37085,23.43128,10.32967,14.19363.90686,39.0297,6.44366,56.0818C412.6289,146.16159,435.02738,160.63313,435.02738,178.8673Z"/><path fill="#ffd815" d="M363.74,315.95c-5.3,1.68-10.26,3.67005-14.27,6.59009C335.28,332.87,328.39,358.64,311.34,364.17993c-16.38,5.31006-36.91-11.12988-55.08-11.28a3.4228,3.4228,0,0,0-.52,0c-18.17.15015-38.7,16.59009-55.07,11.28C183.61,358.64,176.72,332.87,162.53,322.54c-4.01-2.92-8.97-4.91-14.27-6.59009L207.5,213.34l48.5,28,48.5-28Z"/><path fill="#f66" d="M435.02738,178.8673c0,18.2339-22.39841,32.70524-27.74059,49.15822-5.53681,17.05239,3.88592,41.88867-6.4439,56.08251-10.43307,14.33571-37.03514,12.9982-51.37086,23.43127-14.19363,10.32966-21.08448,36.10013-38.13658,41.63693-16.4532,5.34233-37.10128-11.28156-55.33545-11.28156-18.23391,0-38.8817,16.624-55.33468,11.28181-17.05239-5.53681-23.94354-31.30738-38.13738-41.6372-14.33571-10.43308-40.93779-9.09557-51.37085-23.43128-10.32967-14.19363-.90686-39.0297-6.44366-56.0818C99.3711,211.573,76.97262,197.10147,76.97262,178.8673c0-18.23391,22.39841-32.70524,27.74059-49.15823,5.53681-17.05238-3.88592-41.88867,6.4439-56.0825,10.43307-14.33571,37.03515-12.9982,51.37086-23.43127,14.19363-10.32967,21.08448-36.10013,38.13658-41.63693C217.11775,3.216,237.76583,19.83992,256,19.83992c18.2339,0,38.88169-16.624,55.33468-11.2818,17.05239,5.53681,23.94354,31.30738,38.13738,41.6372,14.33571,10.43307,40.93779,9.09557,51.37085,23.43128,10.32967,14.19363.90686,39.0297,6.44366,56.0818C412.6289,146.16159,435.02738,160.63313,435.02738,178.8673Z"/><path fill="#ff4e4e" d="M318.4685,239.51783H215.2565a10.37024,10.37024,0,0,1-9.61051-6.47409L177.15989,162.778l53.89883,28.61885a5.18513,5.18513,0,0,0,7.06936-2.26073l28.73442-57.46885,28.73443,57.46885a5.18511,5.18511,0,0,0,7.06935,2.26073L356.56512,162.778,328.079,233.04374A10.37025,10.37025,0,0,1,318.4685,239.51783Z"/><circle cx="267.327" cy="113.5" r="18" fill="#ff4e4e"/><circle cx="367.827" cy="152" r="15.5" fill="#ff4e4e"/><circle cx="165.827" cy="152" r="15.5" fill="#ff4e4e"/><path fill="#ffe64e" d="M307.64123,239.51783h-103.212a10.37025,10.37025,0,0,1-9.61052-6.47409L166.33262,162.778l53.89883,28.61885a5.18513,5.18513,0,0,0,7.06936-2.26073l28.73442-57.46885,28.73443,57.46885a5.18511,5.18511,0,0,0,7.06935,2.26073L345.73785,162.778l-28.4861,70.26572A10.37025,10.37025,0,0,1,307.64123,239.51783Z"/><path fill="#ffdf1f" d="M269.76965 189.13611a5.18511 5.18511 0 0 0 7.06934 2.26074l7.16009-3.80182L256.03522 131.6673l-7.5 15zM326.62329 172.92737L302.25177 233.0437a10.37029 10.37029 0 0 1-9.61053 6.47412h15a10.37029 10.37029 0 0 0 9.61053-6.47412L345.73785 162.778zM205.23145 191.39685a5.18508 5.18508 0 0 0 7.06933-2.26074l.77057-1.54108-46.73871-24.817 4.11463 10.14935z"/><circle cx="256.5" cy="113.5" r="18" fill="#ffe64e"/><path fill="#ffdf1f" d="M256.5,95.5a17.93986,17.93986,0,0,0-5.80035.97314,17.98192,17.98192,0,0,1,0,34.05372A17.99459,17.99459,0,1,0,256.5,95.5Z"/><circle cx="357" cy="152" r="15.5" fill="#ffe64e"/><path fill="#ffdf1f" d="M357,136.5a15.43783,15.43783,0,0,0-5.19336.91064,15.47916,15.47916,0,0,1,0,29.17872A15.49391,15.49391,0,1,0,357,136.5Z"/><circle cx="155" cy="152" r="15.5" fill="#ffe64e"/><path fill="#ffdf1f" d="M155,136.5a15.43966,15.43966,0,0,0-5.16364.89978,15.47966,15.47966,0,0,1,0,29.20044A15.494,15.494,0,1,0,155,136.5Z"/><path fill="#272a33" d="M322.127,270.62842a7.50006,7.50006,0,0,0-7.5-7.5H197.44336a7.5,7.5,0,1,0,0,15H314.627A7.50006,7.50006,0,0,0,322.127,270.62842ZM204.4292,247.01807H307.64111a17.79963,17.79963,0,0,0,16.56153-11.15625l25.19867-62.1576a22.998,22.998,0,1,0-14.03882-13.90887L290.417,183.66016,266.95984,136.7467a25.49726,25.49726,0,1,0-21.67365-.3515l-23.63287,47.265-45.00507-23.89643a23.01541,23.01541,0,1,0-13.98767,13.9195l25.20758,62.17859A17.797,17.797,0,0,0,204.4292,247.01807ZM357,144a8,8,0,1,1-8,8A8.00917,8.00917,0,0,1,357,144ZM155,160a8,8,0,1,1,8-8A8.00917,8.00917,0,0,1,155,160Zm101.5-57A10.5,10.5,0,1,1,246,113.5,10.51211,10.51211,0,0,1,256.5,103Zm-75.46777,76.07471L216.71436,198.021a12.68487,12.68487,0,0,0,17.29443-5.53077L256.03516,148.438,278.062,192.49121A12.68518,12.68518,0,0,0,295.356,198.021l35.68213-18.94629-20.73633,51.15088a2.85987,2.85987,0,0,1-2.66065,1.79248H204.4292a2.85882,2.85882,0,0,1-2.65967-1.792ZM445.31641,442.25l-77.731-134.63452c2.21912-.667,4.52612-1.30152,6.874-1.94556,12.26563-3.36523,24.94873-6.84472,32.44727-17.14844,7.42236-10.19824,6.83691-23.26953,6.27148-35.91015-.373-8.33643-.72558-16.21045,1.2417-22.26953,1.835-5.65137,6.60987-11.58741,11.665-17.87207,7.707-9.582,16.44238-20.44239,16.44238-33.60254S433.792,154.84668,426.085,145.26465c-5.05517-6.28467-9.83008-12.22119-11.665-17.87207-1.96728-6.05957-1.61474-13.9336-1.2417-22.27.56543-12.64063,1.15039-25.71143-6.27148-35.90967-7.49854-10.30322-20.18115-13.78271-32.44629-17.14746-7.98486-2.19092-15.52637-4.25977-20.5752-7.93408-4.94482-3.59912-9.18359-10.0708-13.67138-16.92334-6.68994-10.21485-14.27295-21.793-26.563-25.78321-11.78662-3.82714-23.917.72461-35.64795,5.12647C270.06934,9.52832,262.57617,12.33984,256,12.33984s-14.06982-2.81152-22.00293-5.78857c-11.731-4.40186-23.86133-8.95361-35.64844-5.126-12.29,3.99024-19.87256,15.56787-26.5625,25.78272-4.48779,6.85254-8.72656,13.32422-13.67187,16.92334-5.04834,3.67431-12.58985,5.74316-20.57471,7.93408-12.26514,3.36475-24.94775,6.84424-32.44629,17.14746-7.42236,10.19824-6.83691,23.26953-6.27148,35.91016.373,8.33642.72558,16.21093-1.2417,22.26953-1.835,5.65137-6.60987,11.58789-11.665,17.87256-7.707,9.58154-16.44238,20.44189-16.44238,33.602,0,13.16064,8.73535,24.021,16.44238,33.603,5.05517,6.28467,9.83008,12.2212,11.665,17.87256,1.96728,6.0586,1.61474,13.93262,1.2417,22.26953-.56543,12.64014-1.15039,25.71094,6.27148,35.9087,7.49854,10.3042,20.18164,13.78369,32.44727,17.14892,2.34778.644,4.65484,1.27857,6.8739,1.94556l-77.73132,134.635a12.50018,12.50018,0,0,0,10.42871,18.74316l51.13476,1.626,26.97559,43.4707A12.39341,12.39341,0,0,0,165.83643,512c.06836,0,.1372-.00049.20556-.00146a12.39635,12.39635,0,0,0,10.62549-6.2461L256.03247,368.4l79.29858,137.34949a12.39714,12.39714,0,0,0,10.627,6.249c.06836.001.1372.00146.20556.00146a12.39432,12.39432,0,0,0,10.61377-5.90918l26.97608-43.47119,51.13476-1.626A12.5,12.5,0,0,0,445.31641,442.25ZM165.76709,494.63525l-25.48145-41.0625a12.47313,12.47313,0,0,0-10.22363-5.90283l-48.30029-1.53613,76.46582-132.4436c4.89648,3.61523,9.10535,10.03637,13.55859,16.83569,6.68994,10.21533,14.27295,21.79346,26.563,25.78369a30.13745,30.13745,0,0,0,9.38574,1.436c8.77246,0,17.62549-3.32178,26.26221-6.5625,3.44177-1.29151,6.80029-2.551,10.03741-3.56421l3.33967,5.78442ZM256,330.39453c-9.29785,0-18.43555,3.42871-27.27246,6.74463-9.74561,3.65674-18.94971,7.11182-25.74609,4.90381-7.26758-2.35986-12.79493-10.79981-18.64747-19.73535-5.0288-7.67871-10.22949-15.61914-17.39306-20.83252-7.26367-5.28662-16.5-7.82031-25.43164-10.271-10.22412-2.80469-19.88135-5.4541-24.28809-11.50928-4.33008-5.9497-3.88525-15.88916-3.41406-26.41211.416-9.30517.84668-18.92724-1.96045-27.57275-2.686-8.27246-8.56152-15.57715-14.24316-22.64111-6.75293-8.39551-13.13086-16.3252-13.13086-24.20166S90.85059,163.06152,97.603,154.6665c5.68213-7.064,11.55761-14.36865,14.24365-22.6416,2.80713-8.645,2.37646-18.26709,1.96-27.57226-.4707-10.52344-.91553-20.46289,3.41455-26.41309,4.40674-6.05469,14.06348-8.7041,24.28711-11.50879,8.93213-2.45068,18.16846-4.98486,25.43262-10.27148,7.16406-5.21338,12.36426-13.15381,17.39355-20.833,5.85157-8.93506,11.37891-17.37451,18.64649-19.73438,6.79834-2.20751,16.00146,1.24707,25.74658,4.90332,8.83691,3.31592,17.97461,6.74463,27.27246,6.74463s18.43555-3.42871,27.27246-6.74463c9.74609-3.65673,18.95264-7.10839,25.74609-4.9038,7.26709,2.35986,12.79493,10.7998,18.647,19.73535,5.02929,7.67871,10.23,15.61914,17.39355,20.83252,7.26416,5.28662,16.50049,7.8208,25.43262,10.27148,10.22363,2.80469,19.88037,5.4541,24.28711,11.50879,4.33008,5.94971,3.88525,15.88965,3.41406,26.4126-.416,9.30517-.84668,18.92676,1.96045,27.57275,2.686,8.27246,8.56152,15.57715,14.24365,22.64112,6.75244,8.3955,13.13037,16.3247,13.13037,24.20117s-6.37793,15.80615-13.13086,24.20117c-5.68164,7.064-11.55712,14.36816-14.24316,22.64111-2.80713,8.64551-2.37646,18.26758-1.96,27.57276.4707,10.523.91553,20.4624-3.41455,26.41259-4.40674,6.05518-14.064,8.70459-24.28809,11.50928-8.93164,2.45069-18.168,4.98438-25.43164,10.271-7.16406,5.21338-12.36426,13.15381-17.39355,20.833-5.85157,8.93554-11.37891,17.375-18.64649,19.73486-6.79638,2.20752-16.00049-1.24707-25.74609-4.90381C274.436,333.82324,265.29785,330.39453,256,330.39453ZM381.9375,447.66992a12.473,12.473,0,0,0-10.22314,5.90283l-25.481,41.061L260.276,345.75024c5.47913.84253,11.46515,3.08338,17.72742,5.43287,11.73047,4.40087,23.86035,8.95214,35.64795,5.12646,12.29-3.99023,19.873-15.56836,26.563-25.7832,4.45282-6.79932,8.66174-13.22119,13.55792-16.83631l76.466,132.44373Z"/></svg>