<?xml version="1.0" encoding="iso-8859-1"?>
<!-- Generator: Adobe Illustrator 19.0.0, SVG Export Plug-In . SVG Version: 6.00 Build 0)  -->
<svg version="1.1" id="Layer_1" xmlns="http://www.w3.org/2000/svg" xmlns:xlink="http://www.w3.org/1999/xlink" x="0px" y="0px"
	 viewBox="0 0 512 512" style="enable-background:new 0 0 512 512;" xml:space="preserve">
<path style="fill:#C4CAD9;" d="M182.533,282.637l-95.905-95.905C43.677,143.781,40.203,76.8,75.379,30.029
	c5.27-7.017,15.904-8.31,22.585-1.597l169.401,169.372c5.855,5.855,5.855,15.353,0,21.208l-63.624,63.624
	C197.883,288.495,188.392,288.495,182.533,282.637z"/>
<path style="fill:#B8BFCC;" d="M294.491,394.609l-48.333-48.348c-5.858-5.858-5.858-15.35,0-21.208l63.595-63.624
	c5.624-5.624,15.584-5.624,21.208,0l48.362,48.347c8.156,8.188,4.386,22.136-6.737,25.09c-25.837,6.884-46.137,27.198-52.991,52.991
	C316.623,399.049,302.592,402.752,294.491,394.609z"/>
<path style="fill:#E6EEFF;" d="M438.075,29.965c-5.399-7.199-16.197-8.1-22.497-1.5L256,188.044L134.216,309.827
	c-8.1,8.098-4.5,22.197,6.598,24.896c25.798,6.9,46.195,27.297,53.094,53.094c3.001,11.099,17.098,14.998,25.198,6.898L256,357.821
	l170.977-170.977C469.871,143.649,473.17,76.459,438.075,29.965z"/>
<path style="fill:#DAE2F2;" d="M438.075,29.965c-5.399-7.199-16.197-8.1-22.497-1.5L256,188.044V357.82l170.977-170.977
	C469.871,143.649,473.17,76.459,438.075,29.965z"/>
<circle style="fill:#5C5F66;" cx="256.005" cy="270.964" r="14.998"/>
<path d="M256,60.992c-8.29,0-14.998-6.708-14.998-14.998V14.998C241.002,6.708,247.71,0,256,0c8.29,0,14.998,6.708,14.998,14.998
	v30.996C270.998,54.284,264.29,60.992,256,60.992z"/>
<g>
	<path style="fill:#736056;" d="M256,60.992c-8.29,0-14.998-6.708-14.998-14.998V14.998C241.002,6.708,247.71,0,256,0
		c8.29,0,14.998,6.708,14.998,14.998v30.996C270.998,54.284,264.29,60.992,256,60.992z"/>
	<path style="fill:#736056;" d="M256,150.98c-8.29,0-14.998-6.708-14.998-14.998v-29.996c0-8.29,6.708-14.998,14.998-14.998
		c8.29,0,14.998,6.708,14.998,14.998v29.996C270.998,144.272,264.29,150.98,256,150.98z"/>
</g>
<path style="fill:#7BCC29;" d="M121.018,302.028c-57.982,0-104.986,47.004-104.986,104.986S63.036,512,121.018,512
	s104.986-47.004,104.986-104.986S178.999,302.028,121.018,302.028z M121.018,452.008c-24.85,0-44.994-20.144-44.994-44.994
	s20.144-44.994,44.994-44.994s44.994,20.144,44.994,44.994S145.868,452.008,121.018,452.008z"/>
<path style="fill:#6EB825;" d="M390.982,302.028c-57.982,0-104.986,47.004-104.986,104.986S333,512,390.982,512
	s104.986-47.004,104.986-104.986S448.963,302.028,390.982,302.028z M390.982,452.008c-24.85,0-44.994-20.144-44.994-44.994
	s20.144-44.994,44.994-44.994s44.994,20.144,44.994,44.994S415.831,452.008,390.982,452.008z"/>
<path style="fill:#53565C;" d="M270.998,270.964c0-8.285-6.715-14.998-14.998-14.998v29.996
	C264.282,285.961,270.998,279.246,270.998,270.964z"/>
<g>
	<path style="fill:#665247;" d="M270.998,45.994V14.998C270.998,6.708,264.29,0,256,0v60.992
		C264.29,60.992,270.998,54.284,270.998,45.994z"/>
	<path style="fill:#665247;" d="M270.998,135.982v-29.996c0-8.29-6.708-14.998-14.998-14.998v59.992
		C264.29,150.98,270.998,144.272,270.998,135.982z"/>
</g>
<g>
</g>
<g>
</g>
<g>
</g>
<g>
</g>
<g>
</g>
<g>
</g>
<g>
</g>
<g>
</g>
<g>
</g>
<g>
</g>
<g>
</g>
<g>
</g>
<g>
</g>
<g>
</g>
<g>
</g>
</svg>
