<svg height="447pt" viewBox="0 -29 447.00118 447" width="447pt" xmlns="http://www.w3.org/2000/svg" xmlns:xlink="http://www.w3.org/1999/xlink"><linearGradient id="a"><stop offset="0" stop-color="#00efd1"/><stop offset="1" stop-color="#00acea"/></linearGradient><linearGradient id="b" gradientUnits="userSpaceOnUse" x1="223.5" x2="223.5" xlink:href="#a" y1="-41.710403" y2="410.731597"/><linearGradient id="c" gradientUnits="userSpaceOnUse" x1="158.2" x2="158.2" xlink:href="#a" y1="-41.710403" y2="410.731597"/><linearGradient id="d" gradientUnits="userSpaceOnUse" x1="218.45" x2="218.45" xlink:href="#a" y1="-41.710403" y2="410.731597"/><linearGradient id="e" gradientUnits="userSpaceOnUse" x1="287.399" x2="287.399" xlink:href="#a" y1="-41.710403" y2="410.731597"/><path d="m399.5 171.289062h-14.652344l-128.835937-120.539062c2.300781-4.761719 3.492187-9.984375 3.488281-15.273438-.011719-19.605468-15.917969-35.4882808-35.523438-35.476562-19.605468.0117188-35.488281 15.917969-35.476562 35.523438-.003906 5.273437 1.1875 10.476562 3.488281 15.21875l-128.835937 120.546874h-14.652344c-26.46875 0-48.5 21.78125-48.5 48.25v121c0 26.46875 22.03125 47.75 48.5 47.75h351c12.648438.023438 24.78125-5.007812 33.703125-13.976562 8.917969-8.964844 13.886719-21.125 13.796875-33.773438v-121c0-26.46875-21.03125-48.25-47.5-48.25zm-175.5-155.25c10.769531 0 19.5 8.730469 19.5 19.5 0 10.769532-8.730469 19.5-19.5 19.5s-19.5-8.730468-19.5-19.5c.011719-10.765624 8.734375-19.488281 19.5-19.5zm-21.972656 47.230469c12.84375 10.289063 31.113281 10.277344 43.945312-.03125l115.464844 108.050781h-274.875zm228.972656 277.019531c0 17.671876-14.328125 32-32 32h-351c-17.671875 0-32-14.328124-32-32v-121c0-17.671874 14.328125-32 32-32h351c17.671875 0 32 14.328126 32 32zm0 0" fill="url(#b)"/><path d="m179.800781 247.289062h-43.199219c-3.300781 0-4.703124 3.601563-4.703124 6.902344 0 3.796875 1.703124 7.097656 4.703124 7.097656h13.398438v53.910157c0 3.199219 4.101562 4.800781 8 4.800781s8-1.601562 8-4.800781v-53.910157h13.800781c3 0 4.699219-3.300781 4.699219-7.097656 0-3.300781-1.398438-6.902344-4.699219-6.902344zm0 0" fill="url(#c)"/><path d="m228.601562 251.496094c-1.101562-3.5-5.601562-5.203125-10.203124-5.203125-4.597657 0-9.097657 1.703125-10.199219 5.203125l-18.597657 61c-.109374.355468-.175781.726562-.203124 1.097656 0 3.699219 5.703124 6.402344 10 6.402344 2.5 0 4.5-.957032 5.101562-3.054688l3.398438-12.652344h21.101562l3.398438 12.65625c.601562 2.097657 2.601562 2.976563 5.101562 2.976563 4.300781 0 10-2.660156 10-6.359375-.027344-.367188-.09375-.730469-.199219-1.082031zm-17.5 40.792968 7.296876-26.800781 7.300781 26.800781zm0 0" fill="url(#d)"/><path d="m297.898438 283.398438 16.601562-26.601563c.628906-.914063.976562-1.992187 1-3.101563 0-4.199218-5.699219-7.398437-10.101562-7.398437-1.945313-.15625-3.796876.867187-4.699219 2.601563l-13.300781 23.199218-13.296876-23.199218c-.90625-1.734376-2.753906-2.757813-4.703124-2.601563-4.398438 0-10.097657 3.199219-10.097657 7.398437.019531 1.109376.367188 2.1875 1 3.101563l16.597657 26.601563-17.296876 26.699218c-.554687.832032-.867187 1.800782-.902343 2.800782 0 4.296874 6.101562 7.699218 10.402343 7.699218 1.425782.132813 2.820313-.472656 3.699219-1.601562l14.597657-24.800782 14.601562 24.800782c.601562 1.101562 2.101562 1.601562 3.699219 1.601562 4.300781 0 10.402343-3.402344 10.402343-7.699218-.039062-1-.347656-1.96875-.902343-2.800782zm0 0" fill="url(#e)"/></svg>