<?xml version="1.0" standalone="no"?>
<!DOCTYPE svg PUBLIC "-//W3C//DTD SVG 20010904//EN"
 "http://www.w3.org/TR/2001/REC-SVG-20010904/DTD/svg10.dtd">
<svg version="1.0" xmlns="http://www.w3.org/2000/svg"
 width="512.000000pt" height="512.000000pt" viewBox="0 0 512.000000 512.000000"
 preserveAspectRatio="xMidYMid meet">
<metadata>
Created by potrace 1.11, written by Peter Selinger 2001-2013
</metadata>
<g transform="translate(0.000000,512.000000) scale(0.100000,-0.100000)"
fill="#000000" stroke="none">
<path d="M2645 3484 c-95 -19 -131 -27 -145 -34 -8 -4 -37 -19 -65 -33 -27
-13 -102 -52 -165 -87 -63 -34 -142 -77 -175 -95 -33 -18 -149 -81 -258 -140
l-198 -107 -102 6 c-184 11 -379 7 -507 -10 -25 -3 -61 -8 -80 -10 -45 -6 -58
-8 -165 -33 -122 -28 -192 -51 -375 -125 -36 -15 -152 -82 -228 -133 -148
-100 -198 -177 -177 -275 15 -67 105 -226 153 -268 81 -72 121 -84 287 -86
171 -3 175 -3 173 -11 -5 -21 34 -112 72 -168 196 -285 600 -323 845 -79 47
47 74 85 106 153 l44 91 876 0 876 0 18 -47 c27 -72 81 -152 141 -210 51 -48
171 -118 220 -127 12 -3 37 -8 55 -14 51 -13 186 -7 254 13 153 45 276 151
344 295 17 36 31 73 31 83 0 9 6 17 13 17 6 1 66 2 132 4 151 4 203 24 302
117 13 12 56 73 95 137 l73 116 3 301 c3 317 0 350 -41 397 -38 44 -83 57
-223 63 -140 6 -204 11 -354 30 -150 18 -216 32 -593 126 -174 44 -343 85
-375 90 -93 16 -174 28 -227 34 -27 4 -63 8 -80 11 -38 6 -553 13 -580 8z"/>
</g>
</svg>
